<?xml version="1.0" encoding="utf-8"?>
<svg xmlns="http://www.w3.org/2000/svg" viewBox="0 0 26 26" width="52" height="52">
  <path d="M13.1875 0.09375C12.53125 0.101563 11.980469 0.546875 11.84375 1.1875L10.8125 5.96875L6.40625 2.6875C6.15625 2.5 5.859375 2.40625 5.5625 2.40625C5.246094 2.40625 4.945313 2.503906 4.6875 2.71875C4.1875 3.128906 4.027344 3.824219 4.3125 4.40625L7.15625 10.25L2.34375 10.75C1.695313 10.816406 1.171875 11.320313 1.09375 11.96875C1.015625 12.617188 1.386719 13.214844 2 13.4375L6.5625 15.09375L3.65625 18.1875C3.21875 18.652344 3.128906 19.335938 3.46875 19.875C3.730469 20.289063 4.183594 20.53125 4.65625 20.53125C4.796875 20.53125 4.953125 20.511719 5.09375 20.46875L10.375 18.8125L11.0625 24.75C11.132813 25.386719 11.613281 25.886719 12.25 25.96875C12.3125 25.976563 12.375 25.96875 12.4375 25.96875C13.003906 25.96875 13.535156 25.632813 13.75 25.09375L15.8125 19.875L21.40625 22.21875C21.582031 22.292969 21.785156 22.3125 21.96875 22.3125C22.375 22.3125 22.757813 22.140625 23.03125 21.8125C23.425781 21.339844 23.464844 20.671875 23.125 20.15625L20 15.40625L24.75 13.75C25.347656 13.542969 25.730469 12.972656 25.6875 12.34375C25.644531 11.714844 25.183594 11.183594 24.5625 11.0625L20.25 10.21875L23.4375 5.6875C23.625 5.449219 23.75 5.167969 23.75 4.84375C23.75 4.074219 23.113281 3.445313 22.34375 3.4375C22.292969 3.4375 22.238281 3.429688 22.1875 3.4375C21.992188 3.457031 21.820313 3.53125 21.65625 3.625L15.875 6.78125L14.5625 1.15625C14.414063 0.523438 13.835938 0.09375 13.1875 0.09375 Z M 13.1875 1.46875L14.9375 8.875L22.34375 4.84375L17.875 11.15625L24.3125 12.4375L17.875 14.6875L21.96875 20.9375L15.03125 18.03125L12.4375 24.59375L11.59375 16.9375L4.65625 19.15625L9.03125 14.5L2.46875 12.125L9.3125 11.4375L5.5625 3.78125L11.71875 8.40625 Z M 13.375 6.75L12.84375 11.3125L9.46875 8.875L11.53125 12.3125L7.96875 12.6875L11.59375 13.78125L9.03125 16.25L12.875 15.15625L13.0625 20.15625L14.4375 15.9375L18.59375 18.46875L15.84375 14.15625L19.75 12.6875L15.71875 11.96875L18.9375 8.125L14.1875 10.59375Z" fill="#191919" />
</svg>