<?xml version="1.0" encoding="utf-8"?>
<svg xmlns="http://www.w3.org/2000/svg" x="0" y="0" viewBox="0 0 128 128" width="128" height="128">
  <path fill="transparent" d="M100,52C100,52,100,52,100,52L82.72,29.27c-4.29-5.64-4.35-13.42-0.17-19.14l0.82-1.12 c1.59-2.18-0.26-5.15-2.93-4.73C69.76,5.93,61.5,14.96,61.03,26H61v23c0,4.59-3.87,8.28-8.53,7.98c-4.25-0.28-7.47-4-7.47-8.26 l0-10.39c0-2.88-3.67-4.11-5.4-1.8L28,52l0,0c-6.08,8.1-9.5,18.32-8.94,29.35c1.18,23.09,20.1,41.74,43.19,42.61 C87.9,124.94,109,104.43,109,79C109,68.87,105.65,59.52,100,52z" />
  <path fill="transparent" stroke="transparent" stroke-linecap="round" stroke-width="6" d="M87.33,102.33C81.1,108.57,72.81,112,64,112c0,0,0,0,0,0" />
  <path fill="transparent" stroke="transparent" stroke-linecap="round" stroke-width="6" d="M40.37,101.95c-1.92-1.97-3.59-4.18-4.98-6.57" />
  <g>
    <path fill="#191919" d="M64.02,127c-0.62,0-1.25-0.01-1.88-0.04c-24.59-0.93-44.83-20.9-46.08-45.46 c-0.57-11.24,2.81-22.36,9.54-31.31l11.6-15.47c1.58-2.1,4.2-2.92,6.7-2.09c2.49,0.83,4.1,3.07,4.1,5.69v10.39 c0,2.78,2.05,5.09,4.66,5.26c1.41,0.1,2.74-0.38,3.76-1.34C57.44,51.69,58,50.4,58,49V26c0-0.19,0.02-0.37,0.05-0.55 c0.72-12.16,9.88-22.27,21.94-24.14c2.43-0.38,4.83,0.74,6.1,2.83c1.26,2.07,1.15,4.68-0.29,6.64l-0.82,1.12 c-3.38,4.61-3.32,11,0.14,15.55l17.28,22.73c0,0,0.01,0.01,0.01,0.01c6.28,8.36,9.6,18.32,9.6,28.8 c0,13.17-5.22,25.45-14.71,34.58C88.26,122.27,76.51,127,64.02,127z M42,38.33L30.4,53.8c-5.88,7.83-8.84,17.56-8.34,27.4 c1.09,21.49,18.8,38.96,40.31,39.77c11.54,0.43,22.46-3.72,30.76-11.71C101.43,101.27,106,90.52,106,79 c0-9.17-2.9-17.88-8.39-25.19L80.34,31.08c-5.05-6.65-5.13-15.99-0.2-22.72l0.82-1.13c-9.43,1.46-16.53,9.4-16.94,18.89 c0,0.09-0.01,0.18-0.02,0.27V49c0,3.03-1.27,5.95-3.48,8.03c-2.24,2.1-5.18,3.14-8.25,2.95C46.51,59.6,42,54.66,42,48.73V38.33z" />
  </g>
</svg>