<?xml version="1.0" encoding="utf-8"?>
<svg xmlns="http://www.w3.org/2000/svg" viewBox="0 0 24 24" width="48" height="48">
  <path d="M7.729,3.521L2,9.199l1.407,1.42l5.729-5.779c1.206-1.217,3.116-1.217,4.221,0l2.814,2.839c1.206,1.217,1.206,3.143,0,4.259 l-2.814,2.839c-0.402,0.406-1.005,0.406-1.407,0c-0.402-0.406-0.402-1.014,0-1.42l1.407-1.42c1.206-1.217,1.206-3.143,0-4.259 s-3.116-1.217-4.221,0l-2.814,2.839c-1.91,1.926-1.91,5.171,0,7.199l2.814,2.839c1.91,1.926,5.126,1.926,7.136,0L22,14.776 l-1.407-1.42l-5.829,5.881c-1.206,1.217-3.116,1.217-4.221,0l-2.814-2.839c-1.206-1.217-1.206-3.143,0-4.259L10.543,9.3 c0.402-0.406,1.005-0.406,1.407,0c0.402,0.406,0.402,1.014,0,1.42l-1.407,1.42c-1.206,1.217-1.206,3.143,0,4.259 s3.116,1.217,4.221,0l2.814-2.839c1.91-1.926,1.91-5.171,0-7.199l-2.814-2.839C12.854,1.493,9.638,1.493,7.729,3.521z" fill="#191919" />
</svg>