<?xml version="1.0" encoding="utf-8"?>
<svg xmlns="http://www.w3.org/2000/svg" viewBox="0 0 50 50" width="100" height="100">
  <path d="M9 19C5.699219 19 3 21.699219 3 25C3 28.300781 5.699219 31 9 31C12.300781 31 15 28.300781 15 25C15 21.699219 12.300781 19 9 19 Z M 25 19C21.699219 19 19 21.699219 19 25C19 28.300781 21.699219 31 25 31C28.300781 31 31 28.300781 31 25C31 21.699219 28.300781 19 25 19 Z M 41 19C37.699219 19 35 21.699219 35 25C35 28.300781 37.699219 31 41 31C44.300781 31 47 28.300781 47 25C47 21.699219 44.300781 19 41 19 Z M 9 21C11.222656 21 13 22.777344 13 25C13 27.222656 11.222656 29 9 29C6.777344 29 5 27.222656 5 25C5 22.777344 6.777344 21 9 21 Z M 25 21C27.222656 21 29 22.777344 29 25C29 27.222656 27.222656 29 25 29C22.777344 29 21 27.222656 21 25C21 22.777344 22.777344 21 25 21 Z M 41 21C43.222656 21 45 22.777344 45 25C45 27.222656 43.222656 29 41 29C38.777344 29 37 27.222656 37 25C37 22.777344 38.777344 21 41 21Z" fill="#191919" />
</svg>